<svg id="Слой_1" data-name="Слой 1" xmlns="http://www.w3.org/2000/svg" viewBox="0 0 24 24"><defs><style>.cls-1{fill:#e85a4f;}</style></defs><title>behance-red</title><path class="cls-1" d="M8.23,15H6V13H8.26C10.14,13,10.26,15,8.23,15ZM15,12.33h3A1.51,1.51,0,0,0,15,12.33ZM8.18,9H6v2H8.39C10.06,11,10.33,9,8.18,9ZM24,5V19a5,5,0,0,1-5,5H5a5,5,0,0,1-5-5V5A5,5,0,0,1,5,0H19A5,5,0,0,1,24,5ZM14,8h5V7H14Zm-3.55,3.62c1.9-1,1.83-4.55-1.81-4.61H4V17H8.31C12.83,17,12.76,12.46,10.45,11.62Zm9.49.6a3.35,3.35,0,0,0-3.59-3c-2.09,0-3.35,1.34-3.35,4S14.37,17,16.42,17a3.38,3.38,0,0,0,3.4-2H17.7a1.64,1.64,0,0,1-2.76-1.35H20A9.2,9.2,0,0,0,19.94,12.22Z"/></svg>