<svg width="24" height="24" viewBox="0 0 24 24" fill="none" xmlns="http://www.w3.org/2000/svg">
<path d="M8.23 15H6V13H8.26C10.14 13 10.26 15 8.23 15ZM15 12.33H18C17.9574 11.962 17.7811 11.6225 17.5045 11.3761C17.2279 11.1297 16.8704 10.9935 16.5 10.9935C16.1296 10.9935 15.7721 11.1297 15.4955 11.3761C15.2189 11.6225 15.0426 11.962 15 12.33ZM8.18 9H6V11H8.39C10.06 11 10.33 9 8.18 9ZM24 5V19C24 19.6566 23.8707 20.3068 23.6194 20.9134C23.3681 21.52 22.9998 22.0712 22.5355 22.5355C22.0712 22.9998 21.52 23.3681 20.9134 23.6194C20.3068 23.8707 19.6566 24 19 24H5C3.67392 24 2.40215 23.4732 1.46447 22.5355C0.526784 21.5979 0 20.3261 0 19L0 5C0 3.67392 0.526784 2.40215 1.46447 1.46447C2.40215 0.526784 3.67392 0 5 0L19 0C19.6566 0 20.3068 0.129329 20.9134 0.380602C21.52 0.631876 22.0712 1.00017 22.5355 1.46447C22.9998 1.92876 23.3681 2.47995 23.6194 3.08658C23.8707 3.69321 24 4.34339 24 5ZM14 8H19V7H14V8ZM10.45 11.62C12.35 10.62 12.28 7.07 8.64 7.01H4V17H8.31C12.83 17 12.76 12.46 10.45 11.62ZM19.94 12.22C19.8513 11.3504 19.4262 10.55 18.7554 9.9895C18.0847 9.42901 17.2215 9.15286 16.35 9.22C14.26 9.22 13 10.56 13 13.22C13 15.88 14.37 17 16.42 17C17.1248 17.0646 17.832 16.9063 18.442 16.5474C19.052 16.1886 19.534 15.6474 19.82 15H17.7C17.4574 15.2298 17.1504 15.38 16.82 15.4305C16.4897 15.481 16.1518 15.4293 15.8517 15.2825C15.5515 15.1357 15.3033 14.9007 15.1404 14.6089C14.9775 14.3171 14.9075 13.9826 14.94 13.65H20C20.0172 13.1725 19.9971 12.6944 19.94 12.22Z" fill="black"/>
</svg>
