<svg width="98" height="98" viewBox="0 0 98 98" fill="none" xmlns="http://www.w3.org/2000/svg">
<path d="M88.419 0C90.9739 0 93.2095 0.847656 95.1257 2.54297C97.0419 4.23828 98 6.36198 98 8.91406C98 11.2109 97.1788 13.9635 95.5363 17.1719C83.4186 40.1042 74.9326 53.8125 70.0782 58.2969C66.5378 61.6146 62.5594 63.2734 58.143 63.2734C53.5441 63.2734 49.5931 61.5872 46.2899 58.2148C42.9868 54.8424 41.3352 50.8411 41.3352 46.2109C41.3352 41.5443 43.0142 37.6797 46.3721 34.6172L81.3017 2.95313C83.4551 0.984375 85.8276 0 88.419 0ZM38.6525 56.5469C40.076 59.3177 42.0196 61.6875 44.4832 63.6562C46.9469 65.625 49.6935 67.0104 52.7229 67.8125L52.7777 71.6953C52.9237 79.4609 50.5603 85.7865 45.6877 90.6719C40.8151 95.5573 34.4551 98 26.6078 98C22.1184 98 18.14 97.1524 14.6726 95.457C11.2052 93.7617 8.42216 91.4375 6.32346 88.4844C4.22477 85.5312 2.64618 82.1953 1.58771 78.4766C0.529236 74.7578 0 70.7474 0 66.4453C0.255493 66.6276 1.00372 67.1745 2.24469 68.0859C3.48566 68.9974 4.61713 69.8086 5.63911 70.5195C6.66108 71.2305 7.7378 71.8958 8.86927 72.5156C10.0007 73.1354 10.8402 73.4453 11.3877 73.4453C12.8842 73.4453 13.8879 72.7708 14.3989 71.4219C15.3114 69.0156 16.3607 66.9648 17.5469 65.2695C18.7331 63.5742 20.0015 62.1888 21.352 61.1133C22.7024 60.0378 24.3084 59.1719 26.1698 58.5156C28.0313 57.8594 29.911 57.3945 31.8089 57.1211C33.7069 56.8477 35.9881 56.6562 38.6525 56.5469Z" fill="#E98074"/>
</svg>
