<svg width="24" height="24" viewBox="0 0 24 24" fill="none" xmlns="http://www.w3.org/2000/svg">
<path d="M15.23 5.49C14.39 5.49 14.14 5.49 12 5.49C9.86 5.49 9.61 5.49 8.77 5.49C6.6 5.59 5.59 6.61 5.49 8.77C5.49 9.61 5.49 9.86 5.49 12C5.49 14.14 5.49 14.39 5.49 15.23C5.59 17.38 6.59 18.41 8.77 18.51C9.61 18.51 9.86 18.51 12 18.51C14.14 18.51 14.39 18.51 15.23 18.51C17.4 18.41 18.41 17.38 18.51 15.23C18.51 14.39 18.51 14.14 18.51 12C18.51 9.86 18.51 9.61 18.51 8.77C18.41 6.62 17.4 5.59 15.23 5.49ZM12 16.11C11.1871 16.11 10.3925 15.869 9.71661 15.4173C9.04072 14.9657 8.51393 14.3238 8.20286 13.5728C7.89178 12.8218 7.81039 11.9954 7.96897 11.1982C8.12756 10.4009 8.519 9.66858 9.09379 9.09379C9.66858 8.519 10.4009 8.12756 11.1982 7.96897C11.9954 7.81039 12.8218 7.89178 13.5728 8.20286C14.3238 8.51393 14.9657 9.04072 15.4173 9.71661C15.869 10.3925 16.11 11.1871 16.11 12C16.11 13.09 15.677 14.1354 14.9062 14.9062C14.1354 15.677 13.09 16.11 12 16.11ZM16.27 8.69C16.0722 8.69 15.8789 8.63135 15.7144 8.52147C15.55 8.41159 15.4218 8.25541 15.3461 8.07268C15.2704 7.88996 15.2506 7.68889 15.2892 7.49491C15.3278 7.30093 15.423 7.12275 15.5629 6.98289C15.7027 6.84304 15.8809 6.7478 16.0749 6.70921C16.2689 6.67063 16.47 6.69043 16.6527 6.76612C16.8354 6.84181 16.9916 6.96998 17.1015 7.13443C17.2114 7.29888 17.27 7.49222 17.27 7.69C17.27 7.95522 17.1646 8.20957 16.9771 8.39711C16.7896 8.58464 16.5352 8.69 16.27 8.69ZM14.67 12C14.67 12.5281 14.5134 13.0443 14.22 13.4834C13.9266 13.9225 13.5096 14.2647 13.0218 14.4668C12.5339 14.6688 11.997 14.7217 11.4791 14.6187C10.9612 14.5157 10.4854 14.2614 10.112 13.888C9.73862 13.5146 9.48433 13.0388 9.3813 12.5209C9.27828 12.003 9.33115 11.4661 9.53324 10.9782C9.73533 10.4904 10.0775 10.0734 10.5166 9.77998C10.9557 9.48659 11.4719 9.33 12 9.33C12.7073 9.33263 13.3849 9.61478 13.8851 10.1149C14.3852 10.6151 14.6674 11.2927 14.67 12ZM19 0H5C3.67392 0 2.40215 0.526784 1.46447 1.46447C0.526784 2.40215 0 3.67392 0 5L0 19C0 19.6566 0.129329 20.3068 0.380602 20.9134C0.631876 21.52 1.00017 22.0712 1.46447 22.5355C2.40215 23.4732 3.67392 24 5 24H19C19.6566 24 20.3068 23.8707 20.9134 23.6194C21.52 23.3681 22.0712 22.9998 22.5355 22.5355C22.9998 22.0712 23.3681 21.52 23.6194 20.9134C23.8707 20.3068 24 19.6566 24 19V5C24 4.34339 23.8707 3.69321 23.6194 3.08658C23.3681 2.47995 22.9998 1.92876 22.5355 1.46447C22.0712 1.00017 21.52 0.631876 20.9134 0.380602C20.3068 0.129329 19.6566 0 19 0ZM20 15.3C19.87 18.21 18.25 19.82 15.35 19.95C14.49 19.95 14.22 20 12.05 20C9.88 20 9.56 20 8.7 20C5.79 19.87 4.18 18.25 4.05 15.35C4.05 14.5 4.05 14.22 4.05 12.05C4.05 9.88 4.05 9.61 4.05 8.75C4.18 5.79 5.8 4.18 8.7 4.05C9.56 4 9.83 4 12 4C14.17 4 14.44 4 15.3 4C18.21 4.18 19.82 5.8 20 8.7C20 9.56 20.05 9.83 20.05 12C20.05 14.17 20 14.44 20 15.3Z" fill="black"/>
</svg>
