<svg width="90" height="90" viewBox="0 0 90 90" fill="none" xmlns="http://www.w3.org/2000/svg">
<path fill-rule="evenodd" clip-rule="evenodd" d="M26.4477 0.27C31.2464 0.0490908 32.7764 0 45 0C57.2236 0 58.7536 0.0531818 63.5482 0.27C68.3427 0.486818 71.6154 1.25182 74.4791 2.36045C77.4777 3.49364 80.1982 5.265 82.4482 7.55591C84.7391 9.80182 86.5064 12.5182 87.6355 15.5209C88.7482 18.3845 89.5091 21.6573 89.73 26.4436C89.9509 31.2505 90 32.7805 90 45C90 57.2236 89.9468 58.7536 89.73 63.5523C89.5132 68.3386 88.7482 71.6114 87.6355 74.475C86.5063 77.4781 84.7361 80.199 82.4482 82.4482C80.1982 84.7391 77.4777 86.5064 74.4791 87.6355C71.6154 88.7482 68.3427 89.5091 63.5564 89.73C58.7536 89.9509 57.2236 90 45 90C32.7764 90 31.2464 89.9468 26.4477 89.73C21.6614 89.5132 18.3886 88.7482 15.525 87.6355C12.5219 86.5062 9.80108 84.7361 7.55182 82.4482C5.26246 80.2009 3.49083 77.4814 2.36045 74.4791C1.25182 71.6155 0.490909 68.3427 0.27 63.5564C0.0490908 58.7495 0 57.2196 0 45C0 32.7764 0.0531818 31.2464 0.27 26.4518C0.486818 21.6573 1.25182 18.3845 2.36045 15.5209C3.4925 12.5185 5.26549 9.79901 7.55591 7.55182C9.80198 5.26296 12.5201 3.49136 15.5209 2.36045C18.3845 1.25182 21.6573 0.490909 26.4436 0.27H26.4477ZM63.1841 8.37C58.4386 8.15318 57.015 8.10818 45 8.10818C32.985 8.10818 31.5614 8.15318 26.8159 8.37C22.4264 8.57046 20.0455 9.30273 18.4582 9.92045C16.3595 10.7386 14.8582 11.7082 13.2832 13.2832C11.7902 14.7357 10.6412 16.5039 9.92045 18.4582C9.30273 20.0455 8.57045 22.4264 8.37 26.8159C8.15318 31.5614 8.10818 32.985 8.10818 45C8.10818 57.015 8.15318 58.4386 8.37 63.1841C8.57045 67.5736 9.30273 69.9546 9.92045 71.5418C10.6405 73.4932 11.79 75.2646 13.2832 76.7168C14.7355 78.21 16.5068 79.3596 18.4582 80.0796C20.0455 80.6973 22.4264 81.4296 26.8159 81.63C31.5614 81.8468 32.9809 81.8918 45 81.8918C57.0191 81.8918 58.4386 81.8468 63.1841 81.63C67.5736 81.4296 69.9545 80.6973 71.5418 80.0796C73.6405 79.2614 75.1418 78.2918 76.7168 76.7168C78.21 75.2646 79.3596 73.4932 80.0795 71.5418C80.6973 69.9546 81.4295 67.5736 81.63 63.1841C81.8468 58.4386 81.8918 57.015 81.8918 45C81.8918 32.985 81.8468 31.5614 81.63 26.8159C81.4295 22.4264 80.6973 20.0455 80.0795 18.4582C79.2614 16.3595 78.2918 14.8582 76.7168 13.2832C75.2642 11.7903 73.4961 10.6413 71.5418 9.92045C69.9545 9.30273 67.5736 8.57046 63.1841 8.37ZM39.2523 58.8723C42.4622 60.2085 46.0365 60.3888 49.3647 59.3825C52.6929 58.3762 55.5684 56.2456 57.5002 53.3546C59.432 50.4637 60.3002 46.9917 59.9566 43.5318C59.6129 40.0718 58.0787 36.8385 55.6159 34.3841C54.046 32.8151 52.1477 31.6138 50.0577 30.8665C47.9678 30.1192 45.7381 29.8447 43.5293 30.0625C41.3205 30.2804 39.1874 30.9853 37.2837 32.1264C35.38 33.2676 33.753 34.8167 32.5199 36.6621C31.2867 38.5076 30.478 40.6035 30.1521 42.7989C29.8262 44.9944 29.9911 47.2348 30.6349 49.3589C31.2788 51.483 32.3856 53.438 33.8757 55.083C35.3657 56.728 37.202 58.0221 39.2523 58.8723ZM28.6445 28.6445C30.7924 26.4967 33.3422 24.793 36.1485 23.6306C38.9548 22.4682 41.9625 21.8699 45 21.8699C48.0375 21.8699 51.0452 22.4682 53.8515 23.6306C56.6578 24.793 59.2076 26.4967 61.3555 28.6445C63.5033 30.7924 65.207 33.3422 66.3694 36.1485C67.5318 38.9548 68.1301 41.9625 68.1301 45C68.1301 48.0375 67.5318 51.0452 66.3694 53.8515C65.207 56.6578 63.5033 59.2076 61.3555 61.3555C57.0177 65.6932 51.1345 68.1301 45 68.1301C38.8655 68.1301 32.9823 65.6932 28.6445 61.3555C24.3068 57.0177 21.8699 51.1345 21.8699 45C21.8699 38.8655 24.3068 32.9823 28.6445 28.6445ZM73.26 25.3145C73.7923 24.8125 74.2183 24.2087 74.5131 23.539C74.8078 22.8693 74.9651 22.1472 74.9758 21.4156C74.9865 20.684 74.8502 19.9577 74.5752 19.2797C74.3001 18.6017 73.8918 17.9857 73.3744 17.4683C72.857 16.951 72.2411 16.5426 71.563 16.2676C70.885 15.9925 70.1587 15.8563 69.4271 15.8669C68.6955 15.8776 67.9734 16.0349 67.3037 16.3297C66.634 16.6244 66.0303 17.0505 65.5282 17.5827C64.5517 18.6178 64.0171 19.9928 64.0379 21.4156C64.0586 22.8385 64.6331 24.1972 65.6393 25.2035C66.6455 26.2097 68.0042 26.7841 69.4271 26.8049C70.85 26.8256 72.2249 26.291 73.26 25.3145Z" fill="#E98074"/>
</svg>
