<svg width="24" height="24" viewBox="0 0 24 24" fill="none" xmlns="http://www.w3.org/2000/svg">
<path fill-rule="evenodd" clip-rule="evenodd" d="M19 24H5C3.67392 24 2.40215 23.4732 1.46447 22.5355C0.526784 21.5979 0 20.3261 0 19L0 5C0 3.67392 0.526784 2.40215 1.46447 1.46447C2.40215 0.526784 3.67392 0 5 0L19 0C19.6566 0 20.3068 0.129329 20.9134 0.380602C21.52 0.631876 22.0712 1.00017 22.5355 1.46447C22.9998 1.92876 23.3681 2.47995 23.6194 3.08658C23.8707 3.69321 24 4.34339 24 5V19C24 19.6566 23.8707 20.3068 23.6194 20.9134C23.3681 21.52 22.9998 22.0712 22.5355 22.5355C22.0712 22.9998 21.52 23.3681 20.9134 23.6194C20.3068 23.8707 19.6566 24 19 24ZM16.26 18.85C16.3646 18.9261 16.4864 18.975 16.6145 18.9923C16.7427 19.0096 16.8731 18.9947 16.9941 18.9491C17.1151 18.9035 17.2228 18.8285 17.3077 18.7309C17.3925 18.6333 17.4517 18.5162 17.48 18.39C18.06 15.67 19.48 8.78 19.99 6.3C20.0087 6.20755 20.0028 6.11182 19.973 6.02234C19.9431 5.93286 19.8904 5.85276 19.82 5.79C19.7457 5.72915 19.6567 5.68883 19.562 5.67304C19.4673 5.65725 19.37 5.66655 19.28 5.7C16.49 6.7 7.88 9.96 4.36 11.27C4.25128 11.3083 4.15768 11.3805 4.0929 11.4758C4.02813 11.5712 3.99557 11.6848 4 11.8C4.00557 11.916 4.04705 12.0274 4.11872 12.1188C4.19038 12.2101 4.28868 12.277 4.4 12.31C5.97 12.78 8.05 13.44 8.05 13.44C8.05 13.44 9.05 16.36 9.52 17.85C9.55066 17.9411 9.60313 18.0234 9.67285 18.0896C9.74256 18.1559 9.82741 18.2041 9.92 18.23C10.0144 18.2559 10.1139 18.2566 10.2087 18.232C10.3034 18.2075 10.3901 18.1585 10.46 18.09L12.52 16.15C12.52 16.15 14.91 17.89 16.26 18.85ZM8.92 13.07L10 16.76L10.25 14.42L17.07 8.3C17.1024 8.26645 17.1205 8.22163 17.1205 8.175C17.1205 8.12837 17.1024 8.08355 17.07 8.05C17.0419 8.01842 17.0045 7.99657 16.9631 7.98758C16.9218 7.9786 16.8787 7.98295 16.84 8L8.92 13.07Z" fill="black"/>
</svg>
