<svg id="Слой_1" data-name="Слой 1" xmlns="http://www.w3.org/2000/svg" viewBox="0 0 24 24"><defs><style>.cls-1{fill:#e85a4f;fill-rule:evenodd;}</style></defs><title>telegram-red</title><path id="telegram-3" class="cls-1" d="M19,24H5a5,5,0,0,1-5-5V5A5,5,0,0,1,5,0H19a5,5,0,0,1,5,5V19A5,5,0,0,1,19,24Zm-2.74-5.15a.78.78,0,0,0,1.22-.46c.58-2.72,2-9.61,2.51-12.09a.54.54,0,0,0-.17-.51.55.55,0,0,0-.54-.09c-2.79,1-11.4,4.26-14.92,5.57A.54.54,0,0,0,4,11.8a.56.56,0,0,0,.4.51c1.57.47,3.65,1.13,3.65,1.13s1,2.92,1.47,4.41a.59.59,0,0,0,.4.38.56.56,0,0,0,.54-.14l2.06-1.94S14.91,17.89,16.26,18.85ZM8.92,13.07,10,16.76l.25-2.34L17.07,8.3a.18.18,0,0,0,0-.25A.2.2,0,0,0,16.84,8Z"/></svg>