<svg width="100" height="100" viewBox="0 0 100 100" fill="none" xmlns="http://www.w3.org/2000/svg">
<path d="M26.5125 42.2398L11.109 18.57C20.706 6.63439 35.1013 0.0617104 49.8193 0.00122564C58.3476 -0.0592591 67.0574 2.11819 74.9809 6.69487C83.7311 11.7756 90.3844 19.0741 94.6183 27.4613L53.2266 25.2839C41.5127 24.5984 30.3634 31.1912 26.5125 42.2398ZM33.1456 50.002C33.1456 59.3166 40.6861 66.8571 50.0007 66.8571C59.3154 66.8571 66.8558 59.3166 66.8558 50.002C66.8558 40.6873 59.3154 33.1469 50.0007 33.1469C40.6861 33.1469 33.1456 40.6671 33.1456 50.002ZM96.6345 32.0178L68.4688 33.4695C76.11 42.401 76.231 55.2843 69.7994 65.1635L47.1983 99.9221C56.5734 100.426 66.2308 98.3696 74.9809 93.2889C96.6345 80.7887 105.405 54.5786 96.6345 32.0178ZM26.956 59.5989L8.14528 22.6024C3.00408 30.4654 0 39.901 0 50.002C0 75.0023 18.3067 95.7083 42.2385 99.3777L55.0815 74.216C43.4684 76.3935 32.2585 70.0224 26.956 59.5989Z" fill="#E98074"/>
</svg>
